# xmcd CD database file
#
# Track frame offsets:
#	150
#	12179
#	19960
#	40618
#	65516
#	80695
#	97811
#	110776
#	123157
#	137625
#
# Disc length: 2136 seconds
#
# Revision: 0
# Processed by: cddbd v1.5.1PL2 Copyright (c) Steve Scherf et al.
# Submitted via: CDex 1.51
#
DISCID=7b08560a
DTITLE=The Mods - NEWS BEAT
DYEAR=1900
DGENRE=Rock
TTITLE0=ゴキゲンRADIO
TTITLE1=記憶喪失
TTITLE2=夜が呼んでいる
TTITLE3=ハートに火をつけて
TTITLE4=熱いのを一発（HOT STUFF）
TTITLE5=ALL BY MYSELF
TTITLE6=ご・め・ん・だ・ぜ
TTITLE7=イヤな事さ
TTITLE8=CRAZY BEAT
TTITLE9=DO THE MONKEY
EXTD=
EXTT0=
EXTT1=
EXTT2=
EXTT3=
EXTT4=
EXTT5=
EXTT6=
EXTT7=
EXTT8=
EXTT9=
PLAYORDER=
